<?xml version="1.0" encoding="utf-8"?>
<!-- Generator: Adobe Illustrator 28.0.0, SVG Export Plug-In . SVG Version: 6.00 Build 0)  -->
<svg version="1.1" id="Layer_1" xmlns="http://www.w3.org/2000/svg" xmlns:xlink="http://www.w3.org/1999/xlink" x="0px" y="0px"
	 viewBox="0 0 329.26 244.11" style="enable-background:new 0 0 329.26 244.11;" xml:space="preserve">
<style type="text/css">
	.st0{fill:url(#SVGID_1_);}
</style>
<linearGradient id="SVGID_1_" gradientUnits="userSpaceOnUse" x1="164.6302" y1="-34.1068" x2="164.6302" y2="234.3204">
	<stop  offset="0" style="stop-color:#1511f7"/>
	<stop  offset="0.3555" style="stop-color:#5033c4"/>
	<stop  offset="0.6692" style="stop-color:#46a6d6"/>
	<stop  offset="0.8906" style="stop-color:#314096"/>
	<stop  offset="1" style="stop-color:#000dff"/>
</linearGradient>
<path class="st0" d="M247.81,145.12h-53.13v-96.7h74.33v41.94c-0.06,1.45-0.46,7.75-5.59,12.82c-6.11,6.03-14,5.46-15.15,5.36
	h-43.34v27.5h50.01c11.78,0,23.31-4.06,32.13-11.87c0.43-0.38,0.85-0.77,1.28-1.17c0.42-0.4,0.83-0.81,1.23-1.21
	c8.56-8.71,13.1-20.6,13.1-32.81V16.85H33.56V49h95.77L22.73,227.26h41.94l39.15-67.46c11.53,17.13,37.75,17.25,37.75,17.25v50.2
	h51.73v-49.7h34.95l34.95,49.7h43.34L247.81,145.12z M141.56,143.59c0,1.07-0.9,1.92-1.97,1.84c-4.14-0.28-13.63-2.06-17.03-12.21
	c-0.75-2.22-0.33-4.67,1.01-6.6l16.38-23.57c0.5-0.71,1.62-0.36,1.62,0.51V143.59z"/>
</svg>
